<?xml version="1.0" encoding="UTF-8"?>
<svg version="1.1" viewBox="0 0 2000 2000" width="500" height="500" xmlns="http://www.w3.org/2000/svg">
<path transform="translate(451,540)" d="m0 0 5 1 6 15 6 10 10 12 16 11 14 7 36 12 30 8 36 8 64 11 92 13 144 17 28 3h26l1-1v-14l-5-37-3-20v-13l5-5 3-1 11 6 11 7 16 12 72 52 17 13 12 8 16 12 17 12 16 12 14 10 19 14 17 12 13 10 6 5-1 5-10 7-16 10-18 12-11 7-48 32-29 19-38 24-33 22-18 11-12 6-6 1-3-5-3-24-4-35-2-6-8-2-44-6-56-7-62-8-47-7-56-8-38-7-39-8-59-14-42-10-27-8-28-10-33-14-25-13-12-8-14-11-13-11-11-14-8-14-4-14v-21l5-14 6-11 11-14 9-9 14-11 16-11 17-10 21-10z" fill="#73BD62"/>
<path transform="translate(1257,781)" d="m0 0 6 1 16 10 16 12 34 24 16 12 14 10 17 12 18 13 34 24 28 21 2 3-1 7-3 2-65 4-21 2-6 16-11 29-16 32-10 17-12 19-8 10-10 13-8 10h-2l-2 4-9 10-23 23-11 9-14 12-18 13-15 10-21 13-27 14-19 9-26 10-29 9-17 4-30 4-10 1h-41l-41-4-26-4-36-8-25-7-37-13-27-12-25-13-20-12-14-10-8-6-14-11-10-8v-2l-4-2-5-6v-5l3-2 14 7 19 10 19 8 21 7 25 6 31 5 22 1h22l25-1 25-3 25-6 21-6 15-6 23-11 16-10 17-12 12-11 16-16 7-8 12-14 10-13 21-30 12-23 5-11 4-15 1-6h-37l-51-1-6-2-3-4 1-6 11-8 11-7 38-25 19-12 24-16 43-29 57-38 11-7 10-7z" fill="#73BD62"/>
<path transform="translate(920,280)" d="m0 0h12l32 2 36 5 27 6 29 9 28 10 29 13 27 14 23 14 17 12 14 10 12 9 14 11 17 16 21 21 7 8 12 14 15 20 22 33 9 15 15 29 14 28 5 6 11 4 43 7 30 5 9 3 3 3 1 4-5 6-17 13-18 13-28 20-20 14-18 13-19 13-20 14-17 12-18 12-9 5-18-12-18-13-11-7-20-14-13-9-19-13-16-11-14-10-23-16-11-8-40-28-16-12-7-6 1-4 4-4 56-1 26-1 3-1-2-10-12-23-12-20-8-12-7-11-10-14-11-14-11-13-7-7-7-8-14-13-14-11-13-10-19-12-22-12-19-8-33-11-30-7-26-4-10-1h-53l-49 7-26 5-39 10h-4l1-6 5-6 13-10 10-7 22-13 29-15 24-10 25-9 27-8 35-7 39-5z" fill="#65A8BB"/>
<path transform="translate(499,780)" d="m0 0 10 1 38 11 46 10 64 13 48 10 3 9 7 32 9 27 13 29 13 25 11 18 15 22 11 13 9 11 11 12 17 17 8 7 14 12 17 14 16 12 13 11 14 11 10 9 1 5-7 3-26 4-12 1h-51l-21-2-21-4-20-6-28-11-29-15-19-12-18-13-14-10-11-8-7-7-8-7-14-15-11-12-9-11-10-12-13-18-10-15-9-15-12-22-10-21-11-28-6-19-6-22-5-30z" fill="#AEDAA3"/>
<path transform="translate(802,363)" d="m0 0h21l20 2 28 6 15 5 17 8 6 4-1 4-15 9-25 14-12 8-20 15-11 9-26 26-7 9-10 12-12 17-11 17-13 24-8 15-11 28-10 28-3 6-2 1-35-6-35-7-35-8-35-9-31-9-26-9-2-1 1-9 12-23 8-14 16-24 13-19 10-13 11-14 26-26 14-11 12-9 15-9 16-9 26-13 36-12 23-5 37-7z" fill="#AEDAA3"/>
<path transform="translate(1560,606)" d="m0 0 6 1 16 7 25 13 23 14 16 12 12 12 8 11 6 12 1 4v16l-4 10-7 12-9 11-13 11-10 7-15 9-28 14-26 10-24 8-54 16h-2v25l-1 36-2 5-5 1-14-7-19-12-16-11-14-10-57-38-14-10-24-16-11-8-2-2 1-4 8-7 11-8 28-21 15-11 26-20 19-14 13-10 9-7 16-12 13-9 4-3h2l6 25v3l6-1 11-6 9-7 11-8 17-14 12-11 11-9z" fill="#65A8BB"/>
<path transform="translate(856,1274)" d="m0 0h41l1 1v217h-38l-1-13-1-2-11 10-10 6-7 2h-23l-10-4-13-10-9-11-7-14-4-15-2-13v-24l3-17 5-15 6-11 11-12 10-7 13-5 4-1h13l13 4 13 9 2 1v-41zm-29 97-8 3-7 6-5 10-4 15v26l5 17 6 8 5 4 11 2 13-2 9-6 4-5 1-8v-17l-1-39-4-6-8-6-6-2z" fill="#73BD62"/>
<path transform="translate(344,1283)" d="m0 0h18l17 3 15 5 12 7 10 9 8 11 8 16 3 13v9l-5 1h-34l-4-2-4-15-5-10-5-4-9-3-11-1h-10l-10 2-7 4-5 5-5 11-2 11-1 13v53l3 15 4 9 7 8 9 4 5 1h20l10-3 6-4 6-8 3-12 1-7 4-2h19l20 1v9l-4 16-5 12-7 10-6 7-11 8-13 6-17 4-11 1h-13l-19-3-12-5-10-6-12-11-8-9-8-16-4-14-2-17v-54l2-14 4-13 8-16 6-8 6-7 10-8 15-7 14-4z" fill="#73BD62"/>
<path transform="translate(689,1336)" d="m0 0h11l12 3 11 6 8 8 7 12 4 12 1 10v104l-1 1h-42l-1-102-3-9-7-6-9-2-10 1-8 4-3 3h-2l-1 3-2 79-1 29h-41l-1-67v-81l2-3h37l2 1 1 15 11-10 16-9z" fill="#73BD62"/>
<path transform="translate(515,1336)" d="m0 0h9l14 2 14 5 10 6 10 9 7 8 7 14 4 13 2 10v22l-3 19-5 12-8 13-8 9-11 8-13 6-12 3h-26l-12-3-13-7-13-11-8-11-6-12-3-9-2-12v-25l3-17 4-11 6-11 9-10 8-7 15-8 14-4zm1 34-9 3-8 7-6 12-2 8v33l2 9 6 11 7 6 5 2h18l8-4 5-5 3-5 3-9 1-6v-34l-3-12-6-8-6-5-6-2z" fill="#73BD62"/>
<path transform="translate(987,1336)" d="m0 0 16 1 15 4 15 8 8 6 9 11 8 17 4 15v34l-5 19-7 14-8 10-9 8-15 8-15 4-9 1h-10l-12-2-15-6-13-9-7-7-9-13-5-13-3-14-1-8v-16l3-18 6-16 8-12 11-11 16-9 15-5zm1 34-8 2-8 6-6 9-3 9-1 6v27l3 15 5 10 8 6 3 1h19l8-4 8-10 4-11 1-6v-27l-2-12-5-10-7-7-8-3z" fill="#73BD62"/>
<path transform="translate(1150,1337)" d="m0 0h11l13 3 12 7 10 8 7 11 6 12 3 12 1 7v39l-3 14-7 16-8 10-9 9-10 6-14 4h-18l-13-4-14-10-1 45-1 25-1 1h-24l-1-1v-185l1-26h23l2 1 1 12 18-11 9-4zm-10 24-9 3-9 7-6 9-1 32v37l2 10 8 8 8 5 8 2h13l11-4 8-7 6-9 4-10 2-13v-29l-3-16-4-9-4-6-8-6-8-3-6-1z" fill="#65A8BB"/>
<path transform="translate(1678,1337)" d="m0 0h15l14 3 13 7 9 8 7 12 3 11 1 13 1 78 2 22-1 1-7 1h-19l-1-1v-15l-15 10-12 6-9 2h-14l-12-3-10-5-9-7-6-9-4-11v-20l4-11 7-9 9-8 13-5 13-2 40-1 1-13-1-12-5-10-5-4-7-3-6-1h-11l-10 3-6 5-4 8-4 9h-21l-4-1v-7l5-13 6-10 8-7 14-7 11-3zm0 85-12 3-9 6-4 5-2 5v15l4 7 6 5 8 3h15l9-2 10-6 7-7 2-5v-28l-1-1z" fill="#65A8BB"/>
<path transform="translate(1297,1337)" d="m0 0h9l16 3 16 8 11 9 8 10 7 14 3 10 1 7v36l-2 12-7 16-9 12-7 7-13 8-11 4-8 2h-19l-15-4-11-6-10-9-9-12-6-14-5-19-1-9v-14l3-16 6-16 4-8 8-11 9-8 15-8 10-3zm-4 23-10 4-8 9-8 16-2 9-1 11v15l2 16 4 13 6 9 9 8 7 3 5 1 14-1 10-4 8-7 7-12 4-16v-34l-3-14-4-10-9-10-10-5-6-1z" fill="#65A8BB"/>
<path transform="translate(1445,1337)" d="m0 0h10l16 3 14 7 10 9 7 12 3 9v8l-4 1-23-1-5-13-2-4-4-2-10-4h-18l-8 4-6 8-2 10 3 7 9 6 14 5 20 6 16 7 9 6 5 5 6 9 2 5 1 6v11l-3 10-6 9-8 7-10 6-13 4-10 2h-19l-12-3-12-6-10-8-6-8-7-15-1-9 6-1h21l5 13 7 8 7 4 12 2 12-1 10-4 6-7 1-2v-12l-4-6-8-6-14-5-27-9-12-6-9-8-8-16v-15l5-12 7-10 9-7 13-6z" fill="#65A8BB"/>
<path transform="translate(1546,1302)" d="m0 0h27l1 1v37h27l1 21-9 1h-19v33l1 67 2 7 4 2 20 2 1 5-1 13-9 3h-18l-11-4-8-7-6-9-3-11-1-15v-65l1-22-28 1-1-1v-20l1-1 19-1 7-1 1-8z" fill="#65A8BB"/>
<path transform="translate(1363,559)" d="m0 0h12l44 6 47 8 36 8 25 7 10 4 4 3-1 6-11 11-11 9-13 10-20 15-3-1-1-3-3-32-3-11-6-4-14-5-29-6-41-7-14-4-7-6-2-7z" fill="#66A8BB"/>
<path transform="translate(1587,1613)" d="m0 0 8 2 4 4v3h2v-2l8-5 3-1h18l8 6 2 3v55l-1 1-12-1-1-1v-45l-2-5-2-1h-9l-5 2-2 6-1 44-2 1h-9l-4-1v-41l-2-9-3-2h-8l-6 4-2 5-1 12-1 31-8 1-4-1v-64h8l4 2v2l5-2 3-2z" fill="#74BD63"/>
<path transform="translate(1040,1613)" d="m0 0 10 1 3 3 4-3h19l8 4 6 9 3 9v23l-4 9-9 10-6 3h-10l-11-4v28l-2 1h-11l-1-1v-91zm24 10-5 2-4 4-2 6-2 12v13l3 6 3 3 3 1h10l6-4 3-6v-27l-4-7-4-2z" fill="#73BD62"/>
<path transform="translate(1462,1590)" d="m0 0h14l1 18v59l-1 11-1 1h-7l-4-2-5 1-6 3h-9l-8-3-8-8-5-10-1-3v-17l4-13 6-8 5-4 7-2 13 1 5 1zm-16 33-5 3-4 7-1 5v19l5 9 5 3h9l6-5 2-6 1-10v-14l-3-6-5-4z" fill="#73BD62"/>
<path transform="translate(289,1592)" d="m0 0h16l9 4 5 4 6 9 2 5v6l-1 1h-11l-5-11-4-4-6-2h-7l-7 3-3 1-2 6 1 7 6 5 8 3 15 4 9 6 6 9 1 3v9l-5 10-8 7-8 3h-16l-10-3-8-7-6-9-2-6 1-2h12l2 3 2 9 4 2 8 3h9l8-5 3-5v-7l-2-5-6-2-19-7-8-5-7-7-2-5v-13l5-8 9-7z" fill="#66A8BB"/>
<path transform="translate(657,1614)" d="m0 0 6 2v5l5-3 7-4h14l8 4 7 10 3 9v20l-4 11-8 9-8 3h-10l-9-3-2-2 1 25-4 4-9 1-1-14v-73zm19 9-6 3-5 8-1 4v20l5 10 3 3 3 1h8l6-4 4-5 2-4 1-6v-11l-2-9-7-8-6-2z" fill="#67A9BB"/>
<path transform="translate(1311,1614)" d="m0 0h21l9 5 6 8 3 7 1 5v17l-3 9-9 10-5 4-5 2h-12l-10-4-6-5-7-11-1-3v-21l4-11 9-10zm8 9-5 2-5 6-2 7v20l3 6 5 4 2 1h9l6-4 4-7 1-17-2-9-5-6-8-3z" fill="#74BD63"/>
<path transform="translate(1362,1614)" d="m0 0h11l3 4 5-4h20l7 6 3 9 1 14v28l-1 7-4 1h-7l-1-1-1-12v-30l-2-8-6-3-6 1-5 4-3 7-1 41-7 1-8-1v-61z" fill="#75BE64"/>
<path transform="translate(1686,1614)" d="m0 0h12l3 3 1-2 4-1h17l6 2 4 5 2 5 1 8v44l-1 1h-11l-1-1-1-43-4-7-4-3-7 1-6 7-1 2-1 35-1 9h-12l-2-7 1-57z" fill="#74BD63"/>
<path transform="translate(1505,1614)" d="m0 0h19l10 5 6 9 3 8v22l-4 9-6 8-9 5-5 1h-9l-8-3-6-4-6-8-4-8-1-4v-13l3-10 6-10 7-6zm5 10-6 5-4 10-1 4v12l3 7 5 6 5 2h7l6-4 5-6 1-3v-20l-4-8-8-5z" fill="#74BD63"/>
<path transform="translate(1120,1614)" d="m0 0h18l6 3 6 7 4 9 1 4v12l-2 2h-34l-6-1 6 14 1 3 6 2h10l9-6 1-1h5l2 2v5l-5 5-5 4-4 2-13 1-9-2-7-5-6-9-3-8v-20l3-9 4-6 5-5zm5 9-7 4-4 5-3 6v2l2 1 30 1 1-5-4-8-6-5z" fill="#74BD63"/>
<path transform="translate(903,1614)" d="m0 0h18l8 4 4 5 3 9v45l-3 2-7-1v-4l-7 3-8 3h-12l-6-3-5-6-3-7v-11l3-6 9-6 25-3h2l-3-9-3-3-2-1h-7l-10 5-5 4h-6l-1-1v-6l5-7 9-5zm3 33-7 3-3 4 1 11 5 7 9 1 6-3 5-5 2-4v-12l-4-2z" fill="#66A8BB"/>
<path transform="translate(361,1613)" d="m0 0 13 1 6 4 6 7 4 10 1 4v10l-1 1-7 1h-36l6 12 5 5 5 3 7-1 11-6h6l2 5-5 5-4 3-12 3h-10l-8-3-7-6-5-9-2-6v-16l4-12 6-8 9-6zm0 9-6 3-6 7-3 9 1 1h33l1-3-7-12-7-5z" fill="#66A8BB"/>
<path transform="translate(800,1614)" d="m0 0h16l8 3 5 5 2 4v9l-1 1h-6l-5-4-5-6-2-1h-10l-4 4 1 6 6 4 16 4 9 8 2 5v9l-4 7-8 6-7 2h-12l-9-4-8-9-3-6v-3l12-2 2 1 3 9 5 3 2 1h7l6-4 1-7-4-5-23-8-6-5-2-5 1-9 5-8 7-4z" fill="#66A8BB"/>
<path transform="translate(1250,1614)" d="m0 0h21l6 4 6 7 2 5v10l-2 1-9-1-6-12-7-3-7 2-4 4-4 11v14l4 8 3 3 9 2 7-3 4-6 1-3 6-1 5 1v6l-5 8-5 5-7 4-9 1-10-2-6-4-7-8-4-8-1-5v-15l3-10 7-10z" fill="#74BD63"/>
<path transform="translate(738,1614)" d="m0 0h14l8 3 5 4 6 10 2 8v14l-3 11-6 8-8 6-6 2h-11l-9-3-6-5-6-9-3-12 1-14 3-8 7-9 8-5zm2 9-5 3-5 6-3 8v17l4 8 5 5 3 2h9l6-4 5-6 2-6v-19l-4-8-6-5-3-1z" fill="#66A9BB"/>
<path transform="translate(531,1615)" d="m0 0h49l1 3-3 9-10 13-11 14-8 10-3 3 34 2v8l-5 1-45-1 1-7 12-16 10-13 9-11 3-4-34-1z" fill="#67A9BB"/>
<path transform="translate(441,1614)" d="m0 0 9 1 3 5 12 37 1 2 10-31 5-13 1-1h10l-1 9-9 27-9 22-3 6-4 1-5-3-3-5-8-20-8-24-1-5z" fill="#67A9BB"/>
<path transform="translate(850,1600)" d="m0 0h11l1 1v14h12l1 1-1 8-5 1-7-1 1 40 2 6 10 1v6l-5 3h-10l-6-3-4-8-1-8-1-36h-7l-1-1v-7l2-2h7v-9z" fill="#66A8BB"/>
<path transform="translate(1189,1613)" d="m0 0h7l3 3v7l-2 3-12 2-5 4-1 3-1 13-1 30-3 1-9-1-1-1v-62l1-1h9l4 5 6-5z" fill="#73BD62"/>
<path transform="translate(407,1614)" d="m0 0 4 1 2 5 5-2 4-3 3-1h8l1 11-2 1-13 2-4 5-1 8-1 37h-10l-4-4v-57l1-2z" fill="#67A9BB"/>
<path transform="translate(953,1589)" d="m0 0 11 1v88h-12v-88z" fill="#65A8BB"/>
<path transform="translate(1657,1614)" d="m0 0h13l1 1v37l-1 25-1 1h-12z" fill="#73BD62"/>
<path transform="translate(981,1615)" d="m0 0h12v62l-1 1h-11l-1-2v-60z" fill="#66A9BB"/>
<path transform="translate(595,1614)" d="m0 0 11 1 1 1v55l-2 7-9-1-1-1-1-33v-28z" fill="#68AABA"/>
<path transform="translate(1751,1613)" d="m0 0h11v66h-11l-1-1v-63z" fill="#75BE65"/>
<path transform="translate(507,1615)" d="m0 0h11l1 1v61l-1 1h-10l-1-1z" fill="#65A8BC"/>
<path transform="translate(516,540)" d="m0 0h6l-2 5-12 19-3 4-4-1-11-11 1-4 5-5 11-5z" fill="#AEDAA3"/>
<path transform="translate(1657,1593)" d="m0 0 10 1 3 2v9l-1 1h-12z" fill="#73BD62"/>
<path transform="translate(1757,1593)" d="m0 0 5 1v13h-11l-1-9 1-4z" fill="#75BE64"/>
<path transform="translate(983,1594)" d="m0 0h8l2 2-1 10-1 1h-9l-1-1v-9z" fill="#67A9BB"/>
<path transform="translate(625,1032)" d="m0 0 6 1v2l5 2 1 3 4 2 7 5 2 3v4l-5-2-20-18z" fill="#78BF68"/>
<path transform="translate(509,1594)" d="m0 0h7l2 1v11h-11l-1-5 2-6z" fill="#65A8BB"/>
<path transform="translate(602,1594)" d="m0 0 4 1v11h-11l-1-4 2-6z" fill="#67AABA"/>
</svg>
