<?xml version="1.0" encoding="UTF-8"?>
<svg version="1.1" viewBox="0 0 2000 2000" width="500" height="500" xmlns="http://www.w3.org/2000/svg">
<path transform="translate(198,726)" d="m0 0h29l17 2 15 4 16 7 11 8 9 9 7 10 8 17 4 15v42l-5 1h-68l-3-1-1-30-3-14-5-6-5-2h-17l-9 3-3 5-3 8-1 16v71l1 78 2 10 4 10 5 5 3 1h16l8-2 3-3 3-9 2-20v-24l-20-2-3-1-1-12v-44l1-1 21-1h78l1 2v128l-1 43-1 1h-49l-1-1-1-22-7 3-5 6h-2l-2 4-10 8-9 4-18 3h-27l-15-3-16-8-9-7-7-7-8-13-7-15-3-14-2-14v-165l3-20 5-14 8-14 12-13 8-7 19-10 19-4z" fill="#D11911"/>
<path transform="translate(397,734)" d="m0 0h71l19 1 5 17 12 54 14 64 9 40 10 49 8 37 10 49v4l-2 1h-73l-2-3-3-15-4-35v-12l-3 1-17 1-35 1-3 1-4 31-4 27-1 1h-73l1-10 8-43 9-40 13-63 11-50 12-57 10-47zm43 66-5 24-8 52-7 49v5h42v-11l-5-42-5-30-6-42-3-5z" fill="#D11911"/>
<path transform="translate(948,733)" d="m0 0h149l1 9-1 48-1 7-1 1-70 1h-23l1 25v29l89 1 2 6v58l-2 1h-90l1 64h97l1 1v64l-1 1-30 1h-141l-1-2-2-44v-223l1-46 1-1z" fill="#D11911"/>
<path transform="translate(1719,853)" d="m0 0h13l14 3 16 6 19 9 10 7 10 11 7 10 3 8 3 16-2 16-6 18-19 43-14 31-16 36-18 39-13 26-7 9-5 2-17-5-21-10v-3l15-11 6-7 7-14 3-15v-12l-2-1-2 6-8 15h-2v-13l6-34v-15l-4 2-6 9-11 18-9 10-8 5-5-1-2-4 1-7 6-11 20-20 9-11 5-8-1-13-4 1-6 5-6 7-14 11-18 12-14 11-10 9-8 12-1 4v21l2 15-13-5-11-6-5-7v-7l7-21 13-31 8-16 15-31 9-21 16-36 13-30 7-13 11-12 10-6 16-5z" fill="#35345A"/>
<path transform="translate(1324,733)" d="m0 0h54l1 80 1 171h88l1 1v21l-1 34-1 9-4 1h-157l-1-1-1-11-1-34-1-71v-31l1-166 2-2z" fill="#D11911"/>
<path transform="translate(1126,734)" d="m0 0h26l46 1 2 2 1 247h86l1 1 1 63-1 1-30 1h-131l-1-7-1-21-1-39v-247z" fill="#D11911"/>
<path transform="translate(746,735)" d="m0 0h73l1 32 2 216h35l50 1 1 1v64l-1 1h-160l-1-1-1-54v-259z" fill="#D11911"/>
<path transform="translate(567,735)" d="m0 0h72l1 1 1 221 1 25 85 2 2 1v64l-1 1h-157l-3-5-1-11-1-73v-225z" fill="#D11911"/>
<path transform="translate(1498,733)" d="m0 0h50l12 1 3 1-1 314h-71l-1-1-1-13-1-50v-250l1-1z" fill="#D11911"/>
<path transform="translate(593,1089)" d="m0 0h13l3 2 6 18 11 31 3 8 1-58 1-1h15l1 1v104l-1 1h-14l-4-8-18-51-1 58-1 1h-9l-7-1v-104zm37 60 1 2z" fill="#302B33"/>
<path transform="translate(395,1089)" d="m0 0h13l3 1 12 32 7 21 2 4 1-58h16l1 1v104l-1 1h-13l-3-3-13-37-7-19-1 56-1 3h-15l-1-1z" fill="#302B33"/>
<path transform="translate(218,1089)" d="m0 0 15 1 11 30 9 25 2 3v-58l3-1h13l1 1v104l-1 1h-13l-3-2-15-43-4-12-1-2-1 58-1 1h-15l-1-1v-104z" fill="#302B34"/>
<path transform="translate(805,1089)" d="m0 0h18l8 3 5 4 5 10 2 10v52l-3 12-6 9-8 5-5 1h-16l-10-3-5-5-3-5-3-9-2-15v-34l3-18 6-10 5-4zm6 13-5 4-3 6-2 13v31l2 16 3 6 6 4 6-2 4-5 2-8 1-13v-20l-1-18-3-9-6-5z" fill="#302B33"/>
<path transform="translate(668,1089)" d="m0 0 33 1 10 6 6 8 4 11 2 17v16l-2 20-4 13-6 8-10 5-10 1h-23l-1-18v-72zm18 13-1 4 1 76 6-1 6-5 4-9 2-16v-19l-2-16-4-9-3-3z" fill="#302B33"/>
<path transform="translate(1251,1089)" d="m0 0h27l9 3 7 6 4 10v18l-3 9-7 7-4 2 2 5 14 40 1 5-1 1h-16l-3-3-11-32-1-2v36l-1 1h-17l-1-14v-91zm19 14-2 2 1 26 5-1 4-4 2-4v-10l-3-7-4-2z" fill="#312C34"/>
<path transform="translate(927,1096)" d="m0 0 11 2 8 7 2 5v13l-6 12-7 8 1 5 8 14 4-5 1-2h7l7 4-1 5-7 12 1 5 7 11v3h-19l-5-4-10 4h-15l-7-3-5-4-5-9-1-4v-9l4-10 6-8 4-3-1-6-5-11-1-5v-10l3-7 4-5 8-4zm-5 15-3 7 2 8 2 2 4-1 3-4 1-3v-7l-2-2zm-3 48-5 9 1 6 4 6 3 2 6-1 3-3-1-6-8-12z" fill="#302B33"/>
<path transform="translate(1178,1089)" d="m0 0h17l1 1 1 84 3 6 6 1 5-5 1-9 1-77 1-1h16l1 2v80l-2 11-6 9-5 3-4 1h-16l-8-2-7-5-4-8-1-3z" fill="#302B33"/>
<path transform="translate(164,1089)" d="m0 0h15l3 8 15 70 5 22v6h-17l-2-5-3-14h-17l-3 19h-18l1-11 18-84zm6 40-5 29v4l10 1 3-1-1-10-4-21-1-2z" fill="#302B33"/>
<path transform="translate(1531,1089)" d="m0 0h13l3 8 18 84 2 9v5h-17l-2-4-2-14-1-1h-18l-1 14-1 5h-17l-1-5 10-47 11-51zm4 40-5 30v3h14l-5-27-2-6z" fill="#302B33"/>
<path transform="translate(1863,850)" d="m0 0 8 1 35 7 33 5 4 2-2 6-8 16-9 21-5 13-4-2-14-11-16-13-9-7-17-14-4-4 7-19z" fill="#36355B"/>
<path transform="translate(1317,1089)" d="m0 0h40l1 1v11l-1 1-22 1 1 32h19l1 1v12l-21 1 1 32 23 1v12l-1 1h-40l-1-1z" fill="#322D35"/>
<path transform="translate(536,1089)" d="m0 0h40l1 1v11l-1 1h-23v33h21l1 1v12l-21 1v33h23l1 5v7l-1 1h-39l-2-1z" fill="#312C34"/>
<path transform="translate(1443,1089)" d="m0 0h51l-1 5-10 28-18 50-3 8 5 1 24 1v11l-1 2h-45l-6-1 7-21 19-53 7-18h-29z" fill="#312C34"/>
<path transform="translate(1377,1089)" d="m0 0h51l-1 5-13 37-17 48-1 2 29 1v12l-1 1h-45l-5-1 1-6 9-25 13-37 8-22 1-1-29-1z" fill="#302B33"/>
<path transform="translate(1768,794)" d="m0 0 14 3 16 6 14 8 1 3-6 16-11 25-2 3-11-3-19-8-12-6-3-4 1-8 9-21 5-9z" fill="#36355A"/>
<path transform="translate(1024,1089)" d="m0 0h16l7 2 2 2 1 4v8l-1 2-9-3-7-1-5 3-3 5 1 9 21 28 5 10 1 3v16l-4 8-7 7-9 3h-14l-9-3-1-1v-13l4-1 9 4 6-1 5-5 2-4-1-7-6-10-11-13-7-11-3-7-1-11 3-10 6-8 6-4z" fill="#302B33"/>
<path transform="translate(1138,1089)" d="m0 0h19l2 6v6l-1 1-11 1-8 4-4 7-3 10-1 8v23l2 13 4 8 7 5 6-1 5-3 4 1v13l-3 3-5 1h-14l-9-3-8-7-6-12-3-17v-25l2-14 5-13 9-10 7-4z" fill="#302B33"/>
<path transform="translate(497,1089)" d="m0 0h18l1 1v12l-11 1-8 4-4 6-3 11-1 8v25l3 14 4 6 6 4 6-1 5-3 4 1v13l-3 3-6 1h-10l-12-3-9-8-4-8-3-12-1-24 2-23 4-12 6-8 11-7z" fill="#302B33"/>
<path transform="translate(290,1089)" d="m0 0h49l1 3-1 9-1 1-13 1-1 91-1 1h-17l-1-1v-92h-15l-1-3z" fill="#302B33"/>
<path transform="translate(1749,722)" d="m0 0 6 1 10 8 13 11 8 7 10 9 12 12 16 12 3 4-2 9-7-1-42-18-31-12-17-8-5-4 2-4 12 1 12 3 18 7 8 2-7-11-9-10-9-12z" fill="#312C34"/>
<path transform="translate(1071,1089)" d="m0 0h18l1 1v104l-1 1h-17l-1-1z" fill="#312C34"/>
<path transform="translate(743,1089)" d="m0 0h17l1 1v104l-1 1h-17l-1-31v-57z" fill="#312C34"/>
<path transform="translate(357,1089)" d="m0 0 17 1v105h-17l-1-1v-104z" fill="#302B33"/>
<path transform="translate(1824,833)" d="m0 0 14 3 8 5-1 8-5 9-3 3-7 1-9-3-4-5v-8l4-9z" fill="#312C33"/>
<path transform="translate(1788,877)" d="m0 0 4 2 9 10-1 2-12-12z" fill="#3C373E"/>
</svg>
