<?xml version="1.0" encoding="UTF-8"?>
<svg version="1.1" viewBox="0 0 2000 2000" width="500" height="500" xmlns="http://www.w3.org/2000/svg">
<path transform="translate(1245,724)" d="m0 0h26l31 3 23 4 25 7 21 8 32 2 24 3 22 5 21 6 21 8h13l32 3 23 4 25 7 20 8 19 9 18 11 18 13 12 11 8 7 12 12 11 14 10 13 13 21 14 26 13 30 7 18-1 3-4-8-5-13-13-28-16-27-12-17-9-11-14-15-12-11-20-15-20-12-19-9-24-8-25-6-21-3h-10l13 11 11 9 11 11 9 11 12 15 13 20 9 15 11 21 7 16 4 10-1 4-7-15-8-16-8-15-14-21-13-17-12-13-1-3h-2l-13-13-17-13-16-10-10-6-3-1h-15l-35 5-8 1 5 6 5 5 10 11 13 18 12 20 13 26 8 19 7 18-1 3-5-12-13-28-11-20-13-20-11-14-12-14-12-12-6-3-32 8-41 14-31 13-28 13-20 10-23 13-24 14-26 16-40 27-12 8-17 11-19 12-27 16-22 12-32 16-29 13-31 12-30 10-30 8-26 5-24 3-14 1h-42l-12-3v-1l25-4 32-8 29-9 32-12 38-16 14-7 19-9 19-10 27-15 26-16 22-14 27-18 16-11 12-8 22-14 21-13 15-9 23-13 29-15 29-14 38-16 27-10 25-8 30-8-4-3-10-4-27 2-28 4-27 6-31 9-26 9-29 12-26 12-23 11-22 12-25 14-22 14-23 15-22 15-18 12-22 14-25 15-24 14-25 13-16 8-21 10-27 11-28 10-30 9-31 7-24 4-30 3 20 8 19 6 26 5v2l-9 2-31 2h-28l-22-2-24-4-23-6-22-8-7-3-25-1-26-3-29-6-30-10-9-4h-20l-29-3-26-5-26-8-19-8-16-8-15-9-18-13-15-13-16-16-9-11-14-18-12-19-12-21-13-28-10-26-11-35-8-31v-4l27 5 144 28 160 32 24 5 3 2 9 36 11 33 13 31 11 22 11 18 10 14 13 16 3 3 10-3 27-11 29-13 38-19 23-13 18-10 20-12 19-12 18-12 23-16 37-24 20-12 22-13 27-15 29-15 28-13 27-11 30-11 29-9 28-7 27-5 35-4zm29 26-26 2-32 5-24 5-31 9-23 8-32 13-26 12-30 15-23 13-26 15-24 15-25 17-33 22-17 11-15 9-26 15-28 15-26 13-32 14-35 13-30 9-20 5 5 5 18 13 7 4 9-1 29-8 41-14 37-15 39-19 23-12 24-14 16-9 32-20 30-20 16-11 21-14 25-16 26-15 46-25 37-18 34-14 34-12 28-8 26-6 15-3 1-2-12-1z" fill="#BD1F1C"/>
<path transform="translate(230,740)" d="m0 0 27 5 144 28 65 13 2 1 8 31 9 30 7 21 5 12 7 16 10 19 6 11 14 22 8 11 10 13 12 13 13 13 11 9 15 11 20 12 12 7v1h-22l-26-3-29-6-30-10-9-4h-20l-29-3-26-5-26-8-19-8-16-8-15-9-18-13-15-13-16-16-9-11-14-18-12-19-12-21-13-28-10-26-11-35-8-31z" fill="#4B9770"/>
<path transform="translate(1483,769)" d="m0 0 10 1h11l32 3 23 4 25 7 20 8 19 9 18 11 18 13 12 11 8 7 12 12 11 14 10 13 13 21 14 26 13 30 7 18-1 3-4-8-5-13-13-28-16-27-12-17-9-11-14-15-12-11-20-15-20-12-19-9-24-8-25-6-21-3h-10l13 11 11 9 11 11 9 11 12 15 13 20 9 15 11 21 7 16 4 10-1 4-7-15-8-16-8-15-14-21-13-17-12-13-1-3h-2l-13-13-17-13-16-10-10-6-3-1h-15l-35 5-8 1 5 6 5 5 10 11 13 18 12 20 13 26 8 19 7 18-1 3-5-12-13-28-11-20-13-20-11-14-12-14-12-12-6-3-32 8-41 14-31 13-28 13-20 10-23 13-24 14-26 16-40 27-12 8-17 11-19 12-27 16-22 12-32 16-29 13-31 12-30 10-30 8-26 5-24 3-14 1h-42l-12-3v-1l25-4 32-8 29-9 32-12 38-16 14-7 19-9 19-10 27-15 26-16 22-14 27-18 16-11 12-8 22-14 21-13 15-9 23-13 29-15 29-14 38-16 27-10 25-8 30-8-4-3-6-3v-2l3-1h15l7 3v2l42-5z" fill="#BE1F1C"/>
<path transform="translate(1368,745)" d="m0 0 3 1 32 2 24 3 22 5 21 6 15 6-2 2-46 5-6 1h-11l-3-3-4-1h-15l-7 1-27 2-28 4-27 6-31 9-26 9-29 12-26 12-23 11-22 12-25 14-22 14-23 15-22 15-18 12-22 14-25 15-24 14-25 13-16 8-21 10-27 11-28 10-30 9-31 7-24 4-20 2h-12l-10-5-5-5 36-10 41-14 37-15 39-19 23-12 24-14 16-9 32-20 30-20 16-11 21-14 25-16 26-15 46-25 37-18 34-14 34-12 28-8 26-6 15-3 2-1h10l44-4z" fill="#FEFEFE"/>
<path transform="translate(350,764)" d="m0 0 11 1 105 21 2 1 8 31 9 30 7 21 5 12 7 16 10 19 6 11 14 22 8 11 10 13 12 13 13 13 11 9 15 11 20 12 12 7v1h-22l-26-3-29-6-30-10-14-6-10-6-14-8-13-9-14-11-5-4v-2l-4-2-17-17-9-11-14-18-11-18-9-16-13-27-10-26-12-36-8-31z" fill="#FEFEFE"/>
<path transform="translate(1245,724)" d="m0 0h26l31 3 23 4 25 7 16 6 2 2-4 2-44 4h-10l-13-1h-23l-26 2-32 5-24 5-31 9-23 8-32 13-26 12-30 15-23 13-26 15-24 15-25 17-33 22-17 11-15 9-26 15-28 15-26 13-32 14-35 13-30 9-17 4-5-1-10-9-7-9 2-2 21-8 26-11 33-16 20-10 23-13 18-10 20-12 19-12 18-12 23-16 37-24 20-12 22-13 27-15 29-15 28-13 27-11 30-11 29-9 28-7 27-5 35-4z" fill="#4B9770"/>
<path transform="translate(1180,1147)" d="m0 0h21l12 4 11 8 7 8 6 12 2 7v18l-4 13-8 11-9 8-11 5-7 2h-20l-12-4-9-6-8-8-5-8-4-11-1-7v-9l3-12 5-10 9-10 10-7zm6 14-11 3-9 7-6 8-3 8v17l4 9 8 9 12 6 4 1h10l10-3 11-8 6-10 2-7v-11l-3-10-6-9-10-7-5-2-6-1z" fill="#FEFEFE"/>
<path transform="translate(1629,1146)" d="m0 0 13 1 11 4 9 6 9 9 6 12 2 7v21l-4 11-6 9-8 8-10 6-10 3h-21l-14-5-9-7-7-8-6-12-2-6v-19l5-14 9-12 13-9 11-4zm-2 15-9 2-9 6-8 9-4 11v14l4 9 7 9 10 6 8 2h10l11-4 8-6 6-8 3-8v-16l-4-10-9-10-8-4-8-2z" fill="#FEFEFE"/>
<path transform="translate(342,1147)" d="m0 0h22l12 4 12 9 8 11 4 9 2 11-1 16-4 11-8 11-10 8-12 5-4 1h-21l-11-4-9-6-5-5-6-7-5-11-2-8v-15l3-10 6-11 11-11 12-6zm6 14-10 3-6 4-7 7-4 8-2 7v11l3 9 6 8 8 7 7 3 5 1h10l10-3 10-7 6-9 2-6v-18l-4-9-5-7-11-7-9-2z" fill="#FEFEFE"/>
<path transform="translate(846,1147)" d="m0 0h21l12 2 9 6 5 8 1 3v13l-4 6-3 4 10 5 7 8 3 10-2 12-6 10-8 6-7 2-11 1h-32l-1-1v-94zm9 15v24h14l7-3 4-5v-7l-3-6-5-3zm1 37-1 1v28h24l8-4 4-7v-9l-2-4-7-4-4-1z" fill="#FEFEFE"/>
<path transform="translate(422,1147)" d="m0 0h21l9 1 8 4 6 7 3 6v15l-5 7-2 1 11 6 6 7 3 9v7l-3 10-7 9-8 5-15 2h-33l-1-82v-13zm9 15v24h13l6-2 5-5 1-5-2-7-4-4-3-1zm0 37-1 2 1 27 4 1 20-1 6-3 5-6 1-3v-7l-4-6-5-3-5-1z" fill="#FEFEFE"/>
<path transform="translate(493,1146)" d="m0 0 4 2 19 19 7 8 16 16 7 8 8 8 1-59 2-1h13l1 5v91l-5-2-14-14-7-8-21-21-7-8-8-8v60l-1 1h-9l-6-1z" fill="#FEFEFE"/>
<path transform="translate(1695,1146)" d="m0 0 4 2 7 8 16 16 7 8 12 12 7 8 8 8v-60l1-1h13l2 3v93h-3l-13-13-7-8-28-28-7-8-4-3v59l-1 1h-14l-1-96z" fill="#FEFEFE"/>
<path transform="translate(227,1147)" d="m0 0h33l12 3 9 6 6 9 3 8v10l-4 10-8 9-7 2 10 14 16 21 1 4h-15l-5-2-22-32-2-2-11-1-1 37h-14l-1-1zm16 15-1 1v31h16l9-3 6-7 1-3v-7l-3-6-6-5-3-1z" fill="#FEFEFE"/>
<path transform="translate(1065,1147)" d="m0 0h31l11 2 8 4 8 9 4 10v13l-5 10-4 5-10 5 6 7 14 19 7 9v3h-10l-8-1-8-10-16-24-10-2h-3v36l-1 1h-13l-1-1-1-39v-55zm15 15-1 12v19l1 1h15l9-3 5-5 2-3v-10l-4-6-5-4-3-1z" fill="#FEFEFE"/>
<path transform="translate(1324,1147)" d="m0 0h52l1 1v13l-1 1h-41v23l-1 2h37l1 4-1 10-1 1h-36l1 2v23l41 1 1 1v13l-3 1h-50l-4-1v-94z" fill="#FEFEFE"/>
<path transform="translate(622,1147)" d="m0 0h13l1 1v37l-1 6 5-5 12-16 10-14 6-8 8-1h10l-2 5-10 13-8 11-12 16v4l13 16 9 12 8 10 5 6v3h-15l-5-2-12-16-14-18-5-7-2-1v44h-9l-6-1v-94z" fill="#FEFEFE"/>
<path transform="translate(987,1147)" d="m0 0h33l12 2 10 6 7 8 4 11v10l-4 10-8 9-10 5-5 1-23 1-1 33h-14l-1-1zm16 15-1 1v32h21l7-3 5-5 2-3v-10l-5-8-4-3-4-1z" fill="#FEFEFE"/>
<path transform="translate(1433,1146)" d="m0 0 14 1 12 5 9 6 1 5-7 9-9-5-8-4-4-1h-9l-10 3-8 6-7 9-3 8v16l5 10 8 8 10 5 4 1h11l9-3 8-6 4 1 6 7-1 5-12 8-9 3h-21l-12-4-11-8-7-8-7-14-2-11 1-14 5-12 6-9 9-8 14-7z" fill="#FEFEFE"/>
<path transform="translate(1246,1147)" d="m0 0h61l1 1v13l-1 1h-25v80l-1 1h-14v-81h-26v-14z" fill="#FEFEFE"/>
<path transform="translate(1475,1147)" d="m0 0h66l1 14-1 1h-26v80l-1 1h-12l-2-1v-80h-25l-1-14z" fill="#FEFEFE"/>
<path transform="translate(786,1147)" d="m0 0 4 1v52l-1 16-3 9-8 10-9 6-9 3-11 1-14-3-5-3 1-5 5-8 5 1 4 2h12l8-4 3-1 2-4 3-8 1-64z" fill="#FEFEFE"/>
<path transform="translate(589,1147)" d="m0 0h13l1 1v95h-13l-2-1v-94z" fill="#FEFEFE"/>
<path transform="translate(1553,1148)" d="m0 0h15v95h-9l-6-1z" fill="#FEFEFE"/>
<path transform="translate(1514,796)" d="m0 0h19l8 7 11 9 10 9 7 7 9 11 12 15 13 20 9 15 11 21 7 16 4 10-1 4-7-15-8-16-8-15-14-21-13-17-12-13-1-3h-2l-13-13-17-13-16-10-10-6z" fill="#FEFEFE"/>
<path transform="translate(1448,805)" d="m0 0 5 1 6 5 7 8 14 18 12 19 12 23 8 17 11 27 1 6-2-1-5-13-12-26-11-20-13-20-11-14-12-14-14-14z" fill="#4B9770"/>
<path transform="translate(813,1226)" d="m0 0 8 2 4 5-1 7-5 5h-9l-5-4-1-2v-7l5-5z" fill="#FEFEFE"/>
<path transform="translate(923,1226)" d="m0 0 7 1 6 4 1 7-5 6-5 2-7-2-4-5v-7l5-5z" fill="#FEFEFE"/>
<path transform="translate(1398,771)" d="m0 0h15l7 3v2h7v1l-18 2-3 1-11-6v-2z" fill="#4B9770"/>
<path transform="translate(1524,929)" d="m0 0" fill="#4B9770"/>
<path transform="translate(1525,932)" d="m0 0" fill="#4B9770"/>
<path transform="translate(1760,985)" d="m0 0" fill="#BE1F1C"/>
<path transform="translate(1759,982)" d="m0 0" fill="#BE1F1C"/>
<path transform="translate(1639,953)" d="m0 0" fill="#FEFEFE"/>
<path transform="translate(1636,945)" d="m0 0" fill="#FEFEFE"/>
<path transform="translate(1634,940)" d="m0 0" fill="#FEFEFE"/>
</svg>
